<svg width="113" height="18" viewBox="0 0 113 18" fill="none" xmlns="http://www.w3.org/2000/svg">
<path d="M9.38211 2.15619L10.79 4.99484C10.9819 5.39 11.4939 5.76902 11.9258 5.8416L14.4775 6.269C16.1094 6.54319 16.4933 7.7367 15.3175 8.91409L13.3337 10.914C12.9977 11.2528 12.8137 11.906 12.9177 12.3737L13.4857 14.8494C13.9336 16.8091 12.9017 17.5671 11.1819 16.543L8.79017 15.1156C8.35822 14.8575 7.6463 14.8575 7.20635 15.1156L4.81462 16.543C3.1028 17.5671 2.06292 16.801 2.51087 14.8494L3.07881 12.3737C3.1828 11.906 2.99882 11.2528 2.66285 10.914L0.679071 8.91409C-0.4888 7.7367 -0.112842 6.54319 1.51898 6.269L4.0707 5.8416C4.49465 5.76902 5.0066 5.39 5.19857 4.99484L6.60641 2.15619C7.37433 0.615904 8.62219 0.615904 9.38211 2.15619Z" fill="#F3C020"/>
<path d="M33.3821 2.15619L34.79 4.99484C34.9819 5.39 35.4939 5.76902 35.9258 5.8416L38.4775 6.269C40.1094 6.54319 40.4933 7.7367 39.3175 8.91409L37.3337 10.914C36.9977 11.2528 36.8137 11.906 36.9177 12.3737L37.4857 14.8494C37.9336 16.8091 36.9017 17.5671 35.1819 16.543L32.7902 15.1156C32.3582 14.8575 31.6463 14.8575 31.2063 15.1156L28.8146 16.543C27.1028 17.5671 26.0629 16.801 26.5109 14.8494L27.0788 12.3737C27.1828 11.906 26.9988 11.2528 26.6629 10.914L24.6791 8.91409C23.5112 7.7367 23.8872 6.54319 25.519 6.269L28.0707 5.8416C28.4947 5.76902 29.0066 5.39 29.1986 4.99484L30.6064 2.15619C31.3743 0.615904 32.6222 0.615904 33.3821 2.15619Z" fill="#F3C020"/>
<path d="M57.3821 2.15619L58.79 4.99484C58.9819 5.39 59.4939 5.76902 59.9258 5.8416L62.4775 6.269C64.1094 6.54319 64.4933 7.7367 63.3175 8.91409L61.3337 10.914C60.9977 11.2528 60.8137 11.906 60.9177 12.3737L61.4857 14.8494C61.9336 16.8091 60.9017 17.5671 59.1819 16.543L56.7902 15.1156C56.3582 14.8575 55.6463 14.8575 55.2063 15.1156L52.8146 16.543C51.1028 17.5671 50.0629 16.801 50.5109 14.8494L51.0788 12.3737C51.1828 11.906 50.9988 11.2528 50.6629 10.914L48.6791 8.91409C47.5112 7.7367 47.8872 6.54319 49.519 6.269L52.0707 5.8416C52.4947 5.76902 53.0066 5.39 53.1986 4.99484L54.6064 2.15619C55.3743 0.615904 56.6222 0.615904 57.3821 2.15619Z" fill="#F3C020"/>
<path d="M81.3821 2.15619L82.79 4.99484C82.9819 5.39 83.4939 5.76902 83.9258 5.8416L86.4775 6.269C88.1094 6.54319 88.4933 7.7367 87.3175 8.91409L85.3337 10.914C84.9977 11.2528 84.8137 11.906 84.9177 12.3737L85.4857 14.8494C85.9336 16.8091 84.9017 17.5671 83.1819 16.543L80.7902 15.1156C80.3582 14.8575 79.6463 14.8575 79.2063 15.1156L76.8146 16.543C75.1028 17.5671 74.0629 16.801 74.5109 14.8494L75.0788 12.3737C75.1828 11.906 74.9988 11.2528 74.6629 10.914L72.6791 8.91409C71.5112 7.7367 71.8872 6.54319 73.519 6.269L76.0707 5.8416C76.4947 5.76902 77.0066 5.39 77.1986 4.99484L78.6064 2.15619C79.3743 0.615904 80.6222 0.615904 81.3821 2.15619Z" fill="#F3C020"/>
<path d="M105.382 2.15619L106.79 4.99484C106.982 5.39 107.494 5.76902 107.926 5.8416L110.478 6.269C112.109 6.54319 112.493 7.7367 111.317 8.91409L109.334 10.914C108.998 11.2528 108.814 11.906 108.918 12.3737L109.486 14.8494C109.934 16.8091 108.902 17.5671 107.182 16.543L104.79 15.1156C104.358 14.8575 103.646 14.8575 103.206 15.1156L100.815 16.543C99.1028 17.5671 98.0629 16.801 98.5109 14.8494L99.0788 12.3737C99.1828 11.906 98.9988 11.2528 98.6629 10.914L96.6791 8.91409C95.5112 7.7367 95.8872 6.54319 97.519 6.269L100.071 5.8416C100.495 5.76902 101.007 5.39 101.199 4.99484L102.606 2.15619C103.374 0.615904 104.622 0.615904 105.382 2.15619Z" stroke="#403D39" stroke-width="0.5" stroke-linecap="round" stroke-linejoin="round"/>
</svg>
