<svg width="100" height="30" viewBox="0 0 113 16" fill="none" xmlns="http://www.w3.org/2000/svg">
<path d="M9.87825 1.15534L11.2863 3.99431C11.4783 4.3895 11.9903 4.76857 12.4223 4.84116L14.9743 5.2686C16.6063 5.54282 16.9903 6.73646 15.8143 7.91398L13.8303 9.91416C13.4943 10.2529 13.3103 10.9062 13.4143 11.374L13.9823 13.85C14.4303 15.8098 13.3983 16.568 11.6783 15.5437L9.28625 14.1161C8.85425 13.8581 8.14225 13.8581 7.70225 14.1161L5.31026 15.5437C3.59826 16.568 2.55826 15.8018 3.00626 13.85L3.57426 11.374C3.67826 10.9062 3.49426 10.2529 3.15826 9.91416L1.17426 7.91398C0.00626323 6.73646 0.382263 5.54282 2.01426 5.2686L4.56626 4.84116C4.99026 4.76857 5.50226 4.3895 5.69426 3.99431L7.10225 1.15534C7.87025 -0.385115 9.11825 -0.385115 9.87825 1.15534Z" fill="#F3C020"/>
<path d="M33.8802 1.15534L35.2882 3.99431C35.4802 4.3895 35.9922 4.76857 36.4242 4.84116L38.9762 5.2686C40.6082 5.54282 40.9922 6.73646 39.8162 7.91398L37.8322 9.91416C37.4962 10.2529 37.3122 10.9062 37.4162 11.374L37.9842 13.85C38.4322 15.8098 37.4002 16.568 35.6802 15.5437L33.2882 14.1161C32.8562 13.8581 32.1442 13.8581 31.7042 14.1161L29.3122 15.5437C27.6002 16.568 26.5602 15.8018 27.0082 13.85L27.5762 11.374C27.6802 10.9062 27.4962 10.2529 27.1602 9.91416L25.1762 7.91398C24.0082 6.73646 24.3842 5.54282 26.0162 5.2686L28.5682 4.84116C28.9922 4.76857 29.5042 4.3895 29.6962 3.99431L31.1042 1.15534C31.8722 -0.385115 33.1202 -0.385115 33.8802 1.15534Z" fill="#F3C020"/>
<path d="M57.8822 1.15534L59.2902 3.99431C59.4822 4.3895 59.9942 4.76857 60.4262 4.84116L62.9782 5.2686C64.6102 5.54282 64.9942 6.73646 63.8182 7.91398L61.8342 9.91416C61.4982 10.2529 61.3142 10.9062 61.4182 11.374L61.9862 13.85C62.4342 15.8098 61.4022 16.568 59.6822 15.5437L57.2902 14.1161C56.8582 13.8581 56.1462 13.8581 55.7062 14.1161L53.3142 15.5437C51.6022 16.568 50.5622 15.8018 51.0102 13.85L51.5782 11.374C51.6822 10.9062 51.4982 10.2529 51.1622 9.91416L49.1782 7.91398C48.0102 6.73646 48.3862 5.54282 50.0182 5.2686L52.5702 4.84116C52.9942 4.76857 53.5062 4.3895 53.6982 3.99431L55.1062 1.15534C55.8742 -0.385115 57.1222 -0.385115 57.8822 1.15534Z" fill="#F3C020"/>
<path d="M81.8831 1.15534L83.2911 3.99431C83.4831 4.3895 83.9951 4.76857 84.4271 4.84116L86.9791 5.2686C88.6111 5.54282 88.9951 6.73646 87.8191 7.91398L85.8351 9.91416C85.4991 10.2529 85.3151 10.9062 85.4191 11.374L85.9871 13.85C86.4351 15.8098 85.4031 16.568 83.6831 15.5437L81.2911 14.1161C80.8591 13.8581 80.1471 13.8581 79.7071 14.1161L77.3151 15.5437C75.6031 16.568 74.5631 15.8018 75.0111 13.85L75.5791 11.374C75.6831 10.9062 75.4991 10.2529 75.1631 9.91416L73.1791 7.91398C72.0111 6.73646 72.3871 5.54282 74.0191 5.2686L76.5711 4.84116C76.9951 4.76857 77.5071 4.3895 77.6991 3.99431L79.1071 1.15534C79.8751 -0.385115 81.1231 -0.385115 81.8831 1.15534Z" fill="#F3C020"/>
<path d="M105.885 1.15534L107.293 3.99431C107.485 4.3895 107.997 4.76857 108.429 4.84116L110.981 5.2686C112.613 5.54282 112.997 6.73646 111.821 7.91398L109.837 9.91416C109.501 10.2529 109.317 10.9062 109.421 11.374L109.989 13.85C110.437 15.8098 109.405 16.568 107.685 15.5437L105.293 14.1161C104.861 13.8581 104.149 13.8581 103.709 14.1161L101.317 15.5437C99.6051 16.568 98.5651 15.8018 99.0131 13.85L99.5811 11.374C99.6851 10.9062 99.5011 10.2529 99.1651 9.91416L97.1811 7.91398C96.0131 6.73646 96.3891 5.54282 98.0211 5.2686L100.573 4.84116C100.997 4.76857 101.509 4.3895 101.701 3.99431L103.109 1.15534C103.877 -0.385115 105.125 -0.385115 105.885 1.15534Z" fill="#F3C020"/>
</svg>
