<svg width="99" height="98" viewBox="0 0 99 98" fill="none" xmlns="http://www.w3.org/2000/svg">
<path d="M64.0991 51.0231C65.9773 51.0231 67.4998 49.3822 67.4998 47.3581C67.4998 45.334 65.9773 43.6934 64.0991 43.6934C62.2209 43.6934 60.6982 45.334 60.6982 47.3581C60.6982 49.3822 62.2209 51.0231 64.0991 51.0231Z" stroke="#BA5A31" stroke-width="1.5" stroke-linecap="round" stroke-linejoin="round"/>
<path d="M73.6022 27.9723V34.1033C72.8076 34.0006 71.8859 33.9321 70.9006 33.9321H57.2973C50.4957 33.9321 48.239 36.3641 48.239 43.6941V61.1968H29.1054C18.9348 61.1968 16.3921 58.4566 16.3921 47.496V27.9723C16.3921 17.0116 18.9348 14.2715 29.1054 14.2715H60.8888C71.0595 14.2715 73.6022 17.0116 73.6022 27.9723Z" stroke="#BA5A31" stroke-width="1.5" stroke-linecap="round" stroke-linejoin="round"/>
<path d="M38.6406 61.1973V75.9256" stroke="#BA5A31" stroke-width="1.5" stroke-linecap="round" stroke-linejoin="round"/>
<path d="M16.3921 48.1797H48.1755" stroke="#BA5A31" stroke-width="1.5" stroke-linecap="round" stroke-linejoin="round"/>
<path d="M28.9473 75.9248H48.1762" stroke="#BA5A31" stroke-width="1.5" stroke-linecap="round" stroke-linejoin="round"/>
<path d="M64.0996 51.0251C65.9778 51.0251 67.5003 49.3842 67.5003 47.3601C67.5003 45.336 65.9778 43.6953 64.0996 43.6953C62.2214 43.6953 60.6987 45.336 60.6987 47.3601C60.6987 49.3842 62.2214 51.0251 64.0996 51.0251Z" stroke="#BA5A31" stroke-width="1.5" stroke-miterlimit="10" stroke-linecap="round" stroke-linejoin="round"/>
<path d="M73.6029 34.1038C72.8083 34.0011 71.8866 33.9326 70.9013 33.9326H57.298C50.4964 33.9326 48.2397 36.3646 48.2397 43.6946V73.0143C48.2397 80.3442 50.4964 82.776 57.298 82.776H70.9013C77.703 82.776 79.9596 80.3442 79.9596 73.0143V43.6946C79.9596 37.4264 78.3069 34.7546 73.6029 34.1038ZM64.0997 43.6946C65.9749 43.6946 67.5005 45.3385 67.5005 47.3593C67.5005 49.3802 65.9749 51.0243 64.0997 51.0243C62.2245 51.0243 60.6989 49.3802 60.6989 47.3593C60.6989 45.3385 62.2245 43.6946 64.0997 43.6946ZM64.0997 73.0143C60.3493 73.0143 57.298 69.726 57.298 65.6843C57.298 64.0059 57.8384 62.4304 58.7283 61.1973C59.9679 59.4847 61.9067 58.3543 64.0997 58.3543C65.816 58.3543 67.3734 59.0394 68.5494 60.1355C69.9796 61.5056 70.9013 63.4922 70.9013 65.6843C70.9013 69.726 67.8502 73.0143 64.0997 73.0143Z" stroke="#BA5A31" stroke-width="1.5" stroke-miterlimit="10" stroke-linecap="round" stroke-linejoin="round"/>
<path d="M70.9021 65.6835C70.9021 69.7252 67.851 73.0135 64.1005 73.0135C60.3501 73.0135 57.2988 69.7252 57.2988 65.6835C57.2988 64.0051 57.8392 62.4296 58.7291 61.1965C59.9687 59.4839 61.9075 58.3535 64.1005 58.3535C65.8168 58.3535 67.3742 59.0386 68.5502 60.1347C69.9804 61.5048 70.9021 63.4914 70.9021 65.6835Z" stroke="#BA5A31" stroke-width="1.5" stroke-miterlimit="10" stroke-linecap="round" stroke-linejoin="round"/>
<path d="M64.0996 51.0251C65.9778 51.0251 67.5003 49.3842 67.5003 47.3601C67.5003 45.336 65.9778 43.6953 64.0996 43.6953C62.2214 43.6953 60.6987 45.336 60.6987 47.3601C60.6987 49.3842 62.2214 51.0251 64.0996 51.0251Z" stroke="#BA5A31" stroke-width="1.5" stroke-miterlimit="10" stroke-linecap="round" stroke-linejoin="round"/>
</svg>
