<svg width="24" height="25" viewBox="0 0 24 25" fill="none" xmlns="http://www.w3.org/2000/svg">
<path d="M16.5 6.75781H13.5C12.9477 6.75781 12.5 7.20553 12.5 7.75781V10.7578H16.5C16.6137 10.7553 16.7216 10.8082 16.7892 10.8997C16.8568 10.9912 16.8758 11.1098 16.84 11.2178L16.1 13.4178C16.0318 13.6197 15.8431 13.7562 15.63 13.7578H12.5V21.2578C12.5 21.5339 12.2761 21.7578 12 21.7578H9.5C9.22386 21.7578 9 21.5339 9 21.2578V13.7578H7.5C7.22386 13.7578 7 13.5339 7 13.2578V11.2578C7 10.9817 7.22386 10.7578 7.5 10.7578H9V7.75781C9 5.54867 10.7909 3.75781 13 3.75781H16.5C16.7761 3.75781 17 3.98167 17 4.25781V6.25781C17 6.53395 16.7761 6.75781 16.5 6.75781Z" fill="#403D39"/>
</svg>
