<svg width="32" height="32" viewBox="0 0 32 32" fill="none" xmlns="http://www.w3.org/2000/svg">
<path fill-rule="evenodd" clip-rule="evenodd" d="M14.9951 4C12.6737 4 10.7759 5.89694 10.7759 8.21816V8.38289H8.21716C5.89577 8.38289 3.99805 10.2798 3.99805 12.601V25.4301C3.99805 26.4052 4.35398 27.2709 5.113 27.7171C5.87114 28.1628 6.80106 28.0543 7.6542 27.5842L7.65707 27.5826L12.0919 25.1119L12.0937 25.111C12.2018 25.0524 12.3876 25.0039 12.6114 25.0039C12.8351 25.0039 13.021 25.0524 13.1291 25.111L13.1309 25.1119L17.5657 27.5826L17.5686 27.5842C18.4217 28.0543 19.3516 28.1628 20.1098 27.7171C20.8688 27.2709 21.2247 26.4052 21.2247 25.4301V21.4591L24.3431 23.1995L24.3464 23.2014C25.1996 23.6715 26.1295 23.7799 26.8877 23.3342C27.6467 22.888 28.0026 22.0223 28.0026 21.0472V8.21816C28.0026 5.89694 26.1049 4 23.7835 4H14.9951ZM12.188 8.21816C12.188 6.67714 13.4531 5.41202 14.9951 5.41202H23.7835C25.3254 5.41202 26.5906 6.67714 26.5906 8.21816V21.0472C26.5906 21.7096 26.3591 22.007 26.1721 22.117C25.9843 22.2274 25.61 22.285 25.0295 21.9655L25.0279 21.9647L21.2249 19.8422V12.5999C21.2249 10.2787 19.3272 8.38173 17.0058 8.38173H12.188V8.21816ZM5.41007 12.601C5.41007 11.06 6.67525 9.79491 8.21716 9.79491H17.0056C18.5475 9.79491 19.8127 11.06 19.8127 12.601V25.4301C19.8127 26.0925 19.5812 26.3899 19.3942 26.4999C19.2064 26.6102 18.8321 26.6678 18.2514 26.3483L18.25 26.3475L13.8135 23.8759L13.8089 23.8734C13.4423 23.6727 13.0077 23.5918 12.6114 23.5918C12.2151 23.5918 11.7804 23.6727 11.4138 23.8734L11.4093 23.8759L6.97274 26.3475L6.97134 26.3483C6.39067 26.6678 6.01633 26.6102 5.82857 26.4999C5.64154 26.3899 5.41007 26.0925 5.41007 25.4301V12.601Z" fill="#403D39"/>
</svg>
