<svg width="24" height="25" viewBox="0 0 24 25" fill="none" xmlns="http://www.w3.org/2000/svg">
<path fill-rule="evenodd" clip-rule="evenodd" d="M16 3.75781H8C5.23858 3.75781 3 5.99639 3 8.75781V16.7578C3 19.5192 5.23858 21.7578 8 21.7578H16C18.7614 21.7578 21 19.5192 21 16.7578V8.75781C21 5.99639 18.7614 3.75781 16 3.75781ZM19.25 16.7578C19.2445 18.5504 17.7926 20.0023 16 20.0078H8C6.20735 20.0023 4.75549 18.5504 4.75 16.7578V8.75781C4.75549 6.96516 6.20735 5.5133 8 5.50781H16C17.7926 5.5133 19.2445 6.96516 19.25 8.75781V16.7578ZM16.75 9.00781C17.3023 9.00781 17.75 8.56009 17.75 8.00781C17.75 7.45553 17.3023 7.00781 16.75 7.00781C16.1977 7.00781 15.75 7.45553 15.75 8.00781C15.75 8.56009 16.1977 9.00781 16.75 9.00781ZM12 8.25781C9.51472 8.25781 7.5 10.2725 7.5 12.7578C7.5 15.2431 9.51472 17.2578 12 17.2578C14.4853 17.2578 16.5 15.2431 16.5 12.7578C16.5027 11.5635 16.0294 10.4174 15.1849 9.57289C14.3404 8.7284 13.1943 8.25515 12 8.25781ZM9.25 12.7578C9.25 14.2766 10.4812 15.5078 12 15.5078C13.5188 15.5078 14.75 14.2766 14.75 12.7578C14.75 11.239 13.5188 10.0078 12 10.0078C10.4812 10.0078 9.25 11.239 9.25 12.7578Z" fill="#403D39"/>
</svg>
