<svg width="24" height="25" viewBox="0 0 24 25" fill="none" xmlns="http://www.w3.org/2000/svg">
<path fill-rule="evenodd" clip-rule="evenodd" d="M5 3.75781H19C20.1046 3.75781 21 4.65324 21 5.75781V19.7578C21 20.8624 20.1046 21.7578 19 21.7578H5C3.89543 21.7578 3 20.8624 3 19.7578V5.75781C3 4.65324 3.89543 3.75781 5 3.75781ZM8 18.7578C8.27614 18.7578 8.5 18.5339 8.5 18.2578V11.2578C8.5 10.9817 8.27614 10.7578 8 10.7578H6.5C6.22386 10.7578 6 10.9817 6 11.2578V18.2578C6 18.5339 6.22386 18.7578 6.5 18.7578H8ZM7.25 9.75781C6.42157 9.75781 5.75 9.08624 5.75 8.25781C5.75 7.42938 6.42157 6.75781 7.25 6.75781C8.07843 6.75781 8.75 7.42938 8.75 8.25781C8.75 9.08624 8.07843 9.75781 7.25 9.75781ZM17.5 18.7578C17.7761 18.7578 18 18.5339 18 18.2578V13.6578C18.0325 12.0686 16.8576 10.7123 15.28 10.5178C14.177 10.4171 13.1083 10.9322 12.5 11.8578V11.2578C12.5 10.9817 12.2761 10.7578 12 10.7578H10.5C10.2239 10.7578 10 10.9817 10 11.2578V18.2578C10 18.5339 10.2239 18.7578 10.5 18.7578H12C12.2761 18.7578 12.5 18.5339 12.5 18.2578V14.5078C12.5 13.6794 13.1716 13.0078 14 13.0078C14.8284 13.0078 15.5 13.6794 15.5 14.5078V18.2578C15.5 18.5339 15.7239 18.7578 16 18.7578H17.5Z" fill="#403D39"/>
</svg>
