<svg width="47" height="73" viewBox="0 0 47 73" fill="none" xmlns="http://www.w3.org/2000/svg">
<path d="M46.0091 18.4545V53.3636C46.0091 67.3273 43.2273 70.8182 32.1 70.8182H15.4091C4.28182 70.8182 1.5 67.3273 1.5 53.3636V18.4545C1.5 4.49091 4.28182 1 15.4091 1H32.1C43.2273 1 46.0091 4.49091 46.0091 18.4545Z" stroke="#BA5A31" stroke-width="1.5" stroke-linecap="round" stroke-linejoin="round"/>
<path d="M29.4277 9.0293H18.2568" stroke="#BA5A31" stroke-width="1.5" stroke-linecap="round" stroke-linejoin="round"/>
<path d="M23.7542 66.4548C25.4412 66.4548 26.8088 65.0871 26.8088 63.4002C26.8088 61.7133 25.4412 60.3457 23.7542 60.3457C22.0673 60.3457 20.6997 61.7133 20.6997 63.4002C20.6997 65.0871 22.0673 66.4548 23.7542 66.4548Z" stroke="#BA5A31" stroke-width="1.5" stroke-linecap="round" stroke-linejoin="round"/>
<path d="M21.0272 70.8182H27.5727C30.8454 70.8182 31.9363 69.7273 31.9363 66.4545V53.3636C31.9363 50.0909 30.8454 49 27.5727 49H21.0272C17.7545 49 16.6636 50.0909 16.6636 53.3636V66.4545C16.6636 69.7273 17.7545 70.8182 21.0272 70.8182Z" stroke="#BA5A31" stroke-width="1.5" stroke-miterlimit="10" stroke-linecap="round" stroke-linejoin="round"/>
<path d="M24.3001 66.4546C26.1075 66.4546 27.5728 64.9894 27.5728 63.1819C27.5728 61.3744 26.1075 59.9092 24.3001 59.9092C22.4926 59.9092 21.0273 61.3744 21.0273 63.1819C21.0273 64.9894 22.4926 66.4546 24.3001 66.4546Z" stroke="#BA5A31" stroke-width="1.5" stroke-miterlimit="10" stroke-linecap="round" stroke-linejoin="round"/>
<path d="M24.2999 56.637C25.2037 56.637 25.9363 55.9044 25.9363 55.0006C25.9363 54.0969 25.2037 53.3643 24.2999 53.3643C23.3962 53.3643 22.6636 54.0969 22.6636 55.0006C22.6636 55.9044 23.3962 56.637 24.2999 56.637Z" stroke="#BA5A31" stroke-width="1.5" stroke-miterlimit="10" stroke-linecap="round" stroke-linejoin="round"/>
</svg>
