<svg width="99" height="98" viewBox="0 0 48 74" fill="none" xmlns="http://www.w3.org/2000/svg">
<path d="M46.9 19V55C46.9 69.4 44.0312 73 32.5562 73H15.3437C3.86875 73 1 69.4 1 55V19C1 4.6 3.86875 1 15.3437 1H32.5562C44.0312 1 46.9 4.6 46.9 19Z" stroke="#BA5A31" stroke-width="1.5" stroke-linecap="round" stroke-linejoin="round"/>
<path d="M29.8003 9.28027H18.2803" stroke="#BA5A31" stroke-width="1.5" stroke-linecap="round" stroke-linejoin="round"/>
<path d="M23.9498 68.5002C25.6894 68.5002 27.0998 67.0898 27.0998 65.3502C27.0998 63.6106 25.6894 62.2002 23.9498 62.2002C22.2101 62.2002 20.7998 63.6106 20.7998 65.3502C20.7998 67.0898 22.2101 68.5002 23.9498 68.5002Z" stroke="#BA5A31" stroke-width="1.5" stroke-linecap="round" stroke-linejoin="round"/>
</svg>
