<svg width="32" height="32" viewBox="0 0 32 32" fill="none" xmlns="http://www.w3.org/2000/svg">
<path fill-rule="evenodd" clip-rule="evenodd" d="M15.4419 4C9.12269 4 4 9.12269 4 15.4419C4 21.761 9.12269 26.8837 15.4419 26.8837C21.761 26.8837 26.8837 21.761 26.8837 15.4419C26.8837 9.12269 21.761 4 15.4419 4ZM5.67442 15.4419C5.67442 10.0474 10.0474 5.67442 15.4419 5.67442C20.8363 5.67442 25.2093 10.0474 25.2093 15.4419C25.2093 20.8363 20.8363 25.2093 15.4419 25.2093C10.0474 25.2093 5.67442 20.8363 5.67442 15.4419Z" fill="#403D39"/>
<path d="M25.5222 24.3382C25.1953 24.0113 24.6652 24.0113 24.3382 24.3382C24.0113 24.6652 24.0113 25.1953 24.3382 25.5222L26.5708 27.7548C26.8977 28.0817 27.4278 28.0817 27.7548 27.7548C28.0817 27.4278 28.0817 26.8977 27.7548 26.5708L25.5222 24.3382Z" fill="#403D39"/>
</svg>
