<svg width="99" height="98" viewBox="0 0 68 74" fill="none" xmlns="http://www.w3.org/2000/svg">
<path d="M44.2761 32.5717L64.6526 18.9275C66.7047 17.5594 67.2447 14.7514 65.8766 12.7353L59.3245 2.97901C57.9564 0.926957 55.1484 0.386958 53.1323 1.75499L32.7559 15.3993L44.2761 32.5717Z" stroke="#BA5A31" stroke-width="1.5" stroke-linecap="round" stroke-linejoin="round"/>
<path d="M33.9945 17.1237L16.7944 28.6436L26.0103 42.4036L43.2103 30.8838L33.9945 17.1237Z" stroke="#BA5A31" stroke-width="1.5" stroke-linecap="round" stroke-linejoin="round"/>
<path d="M11.1558 51.0392L25.3761 41.535L17.3119 29.5107L3.09155 39.0149C1.43551 40.1309 1.00352 42.363 2.11954 44.0191L6.18763 50.0672C7.26765 51.6872 9.49972 52.1192 11.1558 51.0392Z" stroke="#BA5A31" stroke-width="1.5" stroke-linecap="round" stroke-linejoin="round"/>
<path d="M33.5482 37.7188L17.3838 72.9995" stroke="#BA5A31" stroke-width="1.5" stroke-linecap="round" stroke-linejoin="round"/>
<path d="M33.3687 37.7188L49.353 72.9995" stroke="#BA5A31" stroke-width="1.5" stroke-linecap="round" stroke-linejoin="round"/>
</svg>
