<svg width="22" height="22" viewBox="0 0 22 22" fill="none" xmlns="http://www.w3.org/2000/svg">
<g clip-path="url(#clip0_1238_737)">
<path d="M11.89 4.88086H4.10999C2.39999 4.88086 1 6.28084 1 7.99084V19.3509C1 20.8009 2.04 21.4208 3.31 20.7108L7.23999 18.5208C7.65999 18.2908 8.34 18.2908 8.75 18.5208L12.68 20.7108C13.95 21.4208 14.99 20.8009 14.99 19.3509V7.99084C15 6.28084 13.6 4.88086 11.89 4.88086Z" stroke="#403D39" stroke-width="1.5" stroke-linecap="round" stroke-linejoin="round"/>
<path d="M15 7.99084V19.3509C15 20.8009 13.96 21.4108 12.69 20.7108L8.76001 18.5208C8.34001 18.2908 7.65999 18.2908 7.23999 18.5208L3.31 20.7108C2.04 21.4108 1 20.8009 1 19.3509V7.99084C1 6.28084 2.39999 4.88086 4.10999 4.88086H11.89C13.6 4.88086 15 6.28084 15 7.99084Z" stroke="#403D39" stroke-width="1.5" stroke-linecap="round" stroke-linejoin="round"/>
<path d="M21 4.10999V15.47C21 16.92 19.96 17.53 18.69 16.83L15 14.77V7.98999C15 6.27999 13.6 4.88 11.89 4.88H7V4.10999C7 2.39999 8.39999 1 10.11 1H17.89C19.6 1 21 2.39999 21 4.10999Z" stroke="#403D39" stroke-width="1.5" stroke-linecap="round" stroke-linejoin="round"/>
</g>
<defs>
<clipPath id="clip0_1238_737">
<rect width="22" height="22" fill="white"/>
</clipPath>
</defs>
</svg>
