<svg width="35" height="35" viewBox="0 0 35 35" fill="none" xmlns="http://www.w3.org/2000/svg">
<g clip-path="url(#clip0_1044_3795)">
<path d="M18.3939 4.88086H10.6139C8.9039 4.88086 7.50391 6.28084 7.50391 7.99084V19.3509C7.50391 20.8009 8.54391 21.4208 9.81391 20.7108L13.7439 18.5208C14.1639 18.2908 14.8439 18.2908 15.2539 18.5208L19.1839 20.7108C20.4539 21.4208 21.4939 20.8009 21.4939 19.3509V7.99084C21.5039 6.28084 20.1039 4.88086 18.3939 4.88086Z" fill="#FEFAEC" stroke="#BA5A31" stroke-width="0.5" stroke-linecap="round" stroke-linejoin="round"/>
<path d="M21.5039 7.99084V19.3509C21.5039 20.8009 20.4639 21.4108 19.1939 20.7108L15.2639 18.5208C14.8439 18.2908 14.1639 18.2908 13.7439 18.5208L9.81391 20.7108C8.54391 21.4108 7.50391 20.8009 7.50391 19.3509V7.99084C7.50391 6.28084 8.9039 4.88086 10.6139 4.88086H18.3939C20.1039 4.88086 21.5039 6.28084 21.5039 7.99084Z" fill="#FEFAEC" stroke="#BA5A31" stroke-linecap="round" stroke-linejoin="round"/>
<path d="M27.5039 4.10999V15.47C27.5039 16.92 26.4639 17.53 25.1939 16.83L21.5039 14.77V7.98999C21.5039 6.27999 20.1039 4.88 18.3939 4.88H13.5039V4.10999C13.5039 2.39999 14.9039 1 16.6139 1H24.3939C26.1039 1 27.5039 2.39999 27.5039 4.10999Z" fill="#FEFAEC" stroke="#BA5A31" stroke-linecap="round" stroke-linejoin="round"/>
<path d="M11.5039 12L13.5039 14L17.511 10" stroke="#BA5A31" stroke-linecap="round" stroke-linejoin="round"/>
</g>
<path d="M2.36694 33.04C2.44694 33.16 2.61494 33.268 2.87094 33.364C3.13494 33.46 3.41094 33.508 3.69894 33.508C4.15494 33.508 4.49094 33.42 4.70694 33.244C4.92294 33.068 5.03094 32.824 5.03094 32.512C5.03094 32.296 4.96294 32.108 4.82694 31.948C4.69094 31.788 4.49894 31.648 4.25094 31.528C4.01094 31.4 3.66294 31.248 3.20694 31.072C2.59094 30.84 2.13894 30.564 1.85094 30.244C1.57094 29.916 1.43094 29.488 1.43094 28.96C1.43094 28.608 1.53494 28.3 1.74294 28.036C1.95894 27.772 2.25094 27.568 2.61894 27.424C2.99494 27.272 3.41094 27.196 3.86694 27.196C4.23494 27.196 4.55494 27.224 4.82694 27.28C5.10694 27.336 5.33094 27.392 5.49894 27.448C5.66694 27.504 5.77894 27.54 5.83494 27.556V29.044H5.10294L4.86294 28.156C4.81494 28.06 4.68694 27.98 4.47894 27.916C4.27094 27.844 4.03894 27.808 3.78294 27.808C3.42294 27.808 3.13094 27.888 2.90694 28.048C2.69094 28.208 2.58294 28.424 2.58294 28.696C2.58294 28.936 2.63894 29.136 2.75094 29.296C2.87094 29.448 3.01894 29.572 3.19494 29.668C3.37094 29.764 3.61094 29.876 3.91494 30.004L4.15494 30.1C4.60294 30.276 4.96694 30.444 5.24694 30.604C5.52694 30.764 5.75894 30.976 5.94294 31.24C6.13494 31.496 6.23094 31.812 6.23094 32.188C6.23094 32.78 5.99894 33.252 5.53494 33.604C5.07894 33.956 4.45094 34.132 3.65094 34.132C3.25894 34.132 2.84694 34.08 2.41494 33.976C1.99094 33.864 1.64294 33.752 1.37094 33.64V32.104H2.15094L2.36694 33.04ZM7.30953 32.2C7.30953 31.448 7.68553 30.896 8.43753 30.544C9.18953 30.184 10.1415 29.992 11.2935 29.968V29.632C11.2935 29.256 11.2535 28.96 11.1735 28.744C11.0935 28.528 10.9535 28.372 10.7535 28.276C10.5615 28.172 10.2855 28.12 9.92553 28.12C9.51753 28.12 9.14953 28.18 8.82153 28.3C8.50153 28.412 8.18153 28.552 7.86153 28.72L7.56153 28.096C7.66553 28.008 7.85753 27.892 8.13753 27.748C8.41753 27.604 8.74153 27.476 9.10953 27.364C9.47753 27.252 9.84553 27.196 10.2135 27.196C10.7815 27.196 11.2295 27.276 11.5575 27.436C11.8935 27.588 12.1335 27.836 12.2775 28.18C12.4215 28.524 12.4935 28.984 12.4935 29.56V33.412H13.2015V33.94C13.0415 33.98 12.8375 34.02 12.5895 34.06C12.3495 34.1 12.1375 34.12 11.9535 34.12C11.7295 34.12 11.5775 34.084 11.4975 34.012C11.4175 33.948 11.3775 33.8 11.3775 33.568V33.172C11.1375 33.412 10.8415 33.632 10.4895 33.832C10.1455 34.032 9.75353 34.132 9.31353 34.132C8.73753 34.132 8.25753 33.968 7.87353 33.64C7.49753 33.304 7.30953 32.824 7.30953 32.2ZM9.82953 33.316C10.0375 33.316 10.2775 33.252 10.5495 33.124C10.8215 32.996 11.0695 32.844 11.2935 32.668V30.604C10.4215 30.604 9.76153 30.74 9.31353 31.012C8.87353 31.276 8.65353 31.624 8.65353 32.056C8.65353 32.488 8.75753 32.808 8.96553 33.016C9.18153 33.216 9.46953 33.316 9.82953 33.316ZM13.4841 27.34H16.2681V27.904L15.4161 28.06L16.6281 31.516L17.1321 33.04L17.5641 31.564L18.7761 28.06L17.9601 27.904V27.34H20.3961V27.904L19.7721 28.06L17.4561 34.096H16.4361L14.0241 28.06L13.4841 27.904V27.34ZM23.8084 34.132C22.8404 34.132 22.1004 33.816 21.5884 33.184C21.0844 32.552 20.8324 31.708 20.8324 30.652C20.8324 29.956 20.9644 29.344 21.2284 28.816C21.4924 28.288 21.8604 27.88 22.3324 27.592C22.8124 27.304 23.3564 27.16 23.9644 27.16C24.7084 27.16 25.2844 27.368 25.6924 27.784C26.1084 28.192 26.3284 28.78 26.3524 29.548C26.3524 30.036 26.3244 30.408 26.2684 30.664H22.1404C22.1564 31.456 22.3404 32.096 22.6924 32.584C23.0444 33.064 23.5444 33.304 24.1924 33.304C24.5124 33.304 24.8444 33.248 25.1884 33.136C25.5404 33.016 25.8124 32.876 26.0044 32.716L26.2324 33.244C26.0004 33.484 25.6564 33.692 25.2004 33.868C24.7444 34.044 24.2804 34.132 23.8084 34.132ZM25.0324 30.028C25.0564 29.86 25.0684 29.688 25.0684 29.512C25.0604 28.992 24.9484 28.584 24.7324 28.288C24.5244 27.984 24.1924 27.832 23.7364 27.832C23.2724 27.832 22.9004 28 22.6204 28.336C22.3484 28.672 22.1924 29.236 22.1524 30.028H25.0324ZM29.9758 34.132C29.4958 34.132 29.0558 34.012 28.6558 33.772C28.2558 33.532 27.9358 33.164 27.6958 32.668C27.4638 32.172 27.3478 31.56 27.3478 30.832C27.3478 30.152 27.4878 29.532 27.7678 28.972C28.0478 28.412 28.4478 27.972 28.9678 27.652C29.4958 27.324 30.1158 27.16 30.8278 27.16C31.2358 27.16 31.6078 27.204 31.9438 27.292V25.048L30.7198 24.904V24.388L32.8798 24.172H32.9158L33.1797 24.364V33.388H33.8758V33.94C33.6198 33.996 33.3958 34.04 33.2038 34.072C33.0198 34.104 32.8238 34.12 32.6158 34.12C32.4078 34.12 32.2598 34.084 32.1718 34.012C32.0838 33.94 32.0398 33.788 32.0398 33.556V33.172C31.8158 33.444 31.5198 33.672 31.1518 33.856C30.7918 34.04 30.3998 34.132 29.9758 34.132ZM30.4558 33.28C30.7678 33.28 31.0598 33.212 31.3318 33.076C31.6038 32.932 31.8078 32.768 31.9438 32.584V28.192C31.8798 28.096 31.7278 28.012 31.4878 27.94C31.2558 27.86 31.0078 27.82 30.7438 27.82C30.1198 27.82 29.6198 28.06 29.2438 28.54C28.8758 29.012 28.6918 29.744 28.6918 30.736C28.6918 31.6 28.8558 32.24 29.1838 32.656C29.5118 33.072 29.9358 33.28 30.4558 33.28Z" fill="#BA5A31"/>
<defs>
<clipPath id="clip0_1044_3795">
<rect width="22" height="22" fill="white" transform="translate(6.50391)"/>
</clipPath>
</defs>
</svg>
