<svg width="27" height="35" viewBox="0 0 27 35" fill="none" xmlns="http://www.w3.org/2000/svg">
<g clip-path="url(#clip0_1044_3738)">
<path d="M14.39 4.88086H6.60999C4.89999 4.88086 3.5 6.28084 3.5 7.99084V19.3509C3.5 20.8009 4.54 21.4208 5.81 20.7108L9.73999 18.5208C10.16 18.2908 10.84 18.2908 11.25 18.5208L15.18 20.7108C16.45 21.4208 17.49 20.8009 17.49 19.3509V7.99084C17.5 6.28084 16.1 4.88086 14.39 4.88086Z" stroke="#403D39" stroke-width="1.5" stroke-linecap="round" stroke-linejoin="round"/>
<path d="M17.5 7.99084V19.3509C17.5 20.8009 16.46 21.4108 15.19 20.7108L11.26 18.5208C10.84 18.2908 10.16 18.2908 9.73999 18.5208L5.81 20.7108C4.54 21.4108 3.5 20.8009 3.5 19.3509V7.99084C3.5 6.28084 4.89999 4.88086 6.60999 4.88086H14.39C16.1 4.88086 17.5 6.28084 17.5 7.99084Z" stroke="#403D39" stroke-width="1.5" stroke-linecap="round" stroke-linejoin="round"/>
<path d="M23.5 4.10999V15.47C23.5 16.92 22.46 17.53 21.19 16.83L17.5 14.77V7.98999C17.5 6.27999 16.1 4.88 14.39 4.88H9.5V4.10999C9.5 2.39999 10.9 1 12.61 1H20.39C22.1 1 23.5 2.39999 23.5 4.10999Z" stroke="#403D39" stroke-width="1.5" stroke-linecap="round" stroke-linejoin="round"/>
<path d="M8 12H12" stroke="#292D32" stroke-width="1.5" stroke-linecap="round" stroke-linejoin="round"/>
<path d="M10 14V10" stroke="#292D32" stroke-width="1.5" stroke-linecap="round" stroke-linejoin="round"/>
</g>
<path d="M2.08959 33.04C2.16959 33.16 2.33759 33.268 2.59359 33.364C2.85759 33.46 3.13359 33.508 3.42159 33.508C3.87759 33.508 4.21359 33.42 4.42959 33.244C4.64559 33.068 4.75359 32.824 4.75359 32.512C4.75359 32.296 4.68559 32.108 4.54959 31.948C4.41359 31.788 4.22159 31.648 3.97359 31.528C3.73359 31.4 3.38559 31.248 2.92959 31.072C2.31359 30.84 1.86159 30.564 1.57359 30.244C1.29359 29.916 1.15359 29.488 1.15359 28.96C1.15359 28.608 1.25759 28.3 1.46559 28.036C1.68159 27.772 1.97359 27.568 2.34159 27.424C2.71759 27.272 3.13359 27.196 3.58959 27.196C3.95759 27.196 4.27759 27.224 4.54959 27.28C4.82959 27.336 5.05359 27.392 5.22159 27.448C5.38959 27.504 5.50159 27.54 5.55759 27.556V29.044H4.82559L4.58559 28.156C4.53759 28.06 4.40959 27.98 4.20159 27.916C3.99359 27.844 3.76159 27.808 3.50559 27.808C3.14559 27.808 2.85359 27.888 2.62959 28.048C2.41359 28.208 2.30559 28.424 2.30559 28.696C2.30559 28.936 2.36159 29.136 2.47359 29.296C2.59359 29.448 2.74159 29.572 2.91759 29.668C3.09359 29.764 3.33359 29.876 3.63759 30.004L3.87759 30.1C4.32559 30.276 4.68959 30.444 4.96959 30.604C5.24959 30.764 5.48159 30.976 5.66559 31.24C5.85759 31.496 5.95359 31.812 5.95359 32.188C5.95359 32.78 5.72159 33.252 5.25759 33.604C4.80159 33.956 4.17359 34.132 3.37359 34.132C2.98159 34.132 2.56959 34.08 2.13759 33.976C1.71359 33.864 1.36559 33.752 1.09359 33.64V32.104H1.87359L2.08959 33.04ZM7.03219 32.2C7.03219 31.448 7.40819 30.896 8.16019 30.544C8.91219 30.184 9.86419 29.992 11.0162 29.968V29.632C11.0162 29.256 10.9762 28.96 10.8962 28.744C10.8162 28.528 10.6762 28.372 10.4762 28.276C10.2842 28.172 10.0082 28.12 9.64819 28.12C9.24019 28.12 8.87219 28.18 8.54419 28.3C8.22419 28.412 7.90419 28.552 7.58419 28.72L7.28419 28.096C7.38819 28.008 7.58019 27.892 7.86019 27.748C8.14019 27.604 8.46419 27.476 8.83219 27.364C9.20019 27.252 9.56819 27.196 9.93619 27.196C10.5042 27.196 10.9522 27.276 11.2802 27.436C11.6162 27.588 11.8562 27.836 12.0002 28.18C12.1442 28.524 12.2162 28.984 12.2162 29.56V33.412H12.9242V33.94C12.7642 33.98 12.5602 34.02 12.3122 34.06C12.0722 34.1 11.8602 34.12 11.6762 34.12C11.4522 34.12 11.3002 34.084 11.2202 34.012C11.1402 33.948 11.1002 33.8 11.1002 33.568V33.172C10.8602 33.412 10.5642 33.632 10.2122 33.832C9.86819 34.032 9.47619 34.132 9.03619 34.132C8.46019 34.132 7.98019 33.968 7.59619 33.64C7.22019 33.304 7.03219 32.824 7.03219 32.2ZM9.55219 33.316C9.76019 33.316 10.0002 33.252 10.2722 33.124C10.5442 32.996 10.7922 32.844 11.0162 32.668V30.604C10.1442 30.604 9.48419 30.74 9.03619 31.012C8.59619 31.276 8.37619 31.624 8.37619 32.056C8.37619 32.488 8.48019 32.808 8.68819 33.016C8.90419 33.216 9.19219 33.316 9.55219 33.316ZM13.2067 27.34H15.9908V27.904L15.1388 28.06L16.3508 31.516L16.8548 33.04L17.2868 31.564L18.4988 28.06L17.6828 27.904V27.34H20.1188V27.904L19.4948 28.06L17.1788 34.096H16.1588L13.7468 28.06L13.2067 27.904V27.34ZM23.5311 34.132C22.5631 34.132 21.8231 33.816 21.3111 33.184C20.8071 32.552 20.5551 31.708 20.5551 30.652C20.5551 29.956 20.6871 29.344 20.9511 28.816C21.2151 28.288 21.5831 27.88 22.0551 27.592C22.5351 27.304 23.0791 27.16 23.6871 27.16C24.4311 27.16 25.0071 27.368 25.4151 27.784C25.8311 28.192 26.0511 28.78 26.0751 29.548C26.0751 30.036 26.0471 30.408 25.9911 30.664H21.8631C21.8791 31.456 22.0631 32.096 22.4151 32.584C22.7671 33.064 23.2671 33.304 23.9151 33.304C24.2351 33.304 24.5671 33.248 24.9111 33.136C25.2631 33.016 25.5351 32.876 25.7271 32.716L25.9551 33.244C25.7231 33.484 25.3791 33.692 24.9231 33.868C24.4671 34.044 24.0031 34.132 23.5311 34.132ZM24.7551 30.028C24.7791 29.86 24.7911 29.688 24.7911 29.512C24.7831 28.992 24.6711 28.584 24.4551 28.288C24.2471 27.984 23.9151 27.832 23.4591 27.832C22.9951 27.832 22.6231 28 22.3431 28.336C22.0711 28.672 21.9151 29.236 21.8751 30.028H24.7551Z" fill="#403D39"/>
<defs>
<clipPath id="clip0_1044_3738">
<rect width="22" height="22" fill="white" transform="translate(2.5)"/>
</clipPath>
</defs>
</svg>
