<svg width="32" height="32" viewBox="0 0 32 32" fill="none" xmlns="http://www.w3.org/2000/svg">
<path fill-rule="evenodd" clip-rule="evenodd" d="M15.2558 0C6.83025 0 0 6.83025 0 15.2558C0 23.6814 6.83025 30.5116 15.2558 30.5116C23.6814 30.5116 30.5116 23.6814 30.5116 15.2558C30.5116 6.83025 23.6814 0 15.2558 0ZM2.23256 15.2558C2.23256 8.06326 8.06326 2.23256 15.2558 2.23256C22.4484 2.23256 28.2791 8.06326 28.2791 15.2558C28.2791 22.4484 22.4484 28.2791 15.2558 28.2791C8.06326 28.2791 2.23256 22.4484 2.23256 15.2558Z" fill="#BA5A31"/>
<path d="M28.6963 27.1176C28.2604 26.6817 27.5536 26.6817 27.1176 27.1176C26.6817 27.5536 26.6817 28.2604 27.1176 28.6963L30.0944 31.673C30.5303 32.109 31.2371 32.109 31.673 31.673C32.109 31.2371 32.109 30.5303 31.673 30.0944L28.6963 27.1176Z" fill="#BA5A31"/>
</svg>
