<svg width="99" height="98" viewBox="0 0 99 98" fill="none" xmlns="http://www.w3.org/2000/svg">
<path d="M18.5 31V67C18.5 77.8 23.792 85 36.5 85H61.7C74.192 85 79.7 77.8 79.7 67V62.788C79.7 60.88 78.944 59.044 77.576 57.712L74.588 54.724C73.22 53.356 72.464 51.556 72.464 49.648V41.8C72.464 39.82 74.084 38.2 76.064 38.2C78.044 38.2 79.664 36.58 79.664 34.6V31C79.664 20.2 74.156 13 61.664 13H36.464C23.792 13 18.5 20.2 18.5 31Z" stroke="#BA5A31" stroke-width="1.5" stroke-linecap="round" stroke-linejoin="round"/>
<path d="M34.6644 84.892L34.6284 74.2C34.6284 70.204 37.8324 67 41.8284 67H56.2644C60.2244 67 63.4284 70.204 63.4644 74.164L63.5724 84.928" stroke="#BA5A31" stroke-width="1.5" stroke-linecap="round" stroke-linejoin="round"/>
<path d="M38.0845 23.6198L38.2645 13.2158" stroke="#BA5A31" stroke-width="1.5" stroke-linecap="round" stroke-linejoin="round"/>
<path d="M48.8843 23.6198L49.0643 13.2158" stroke="#BA5A31" stroke-width="1.5" stroke-linecap="round" stroke-linejoin="round"/>
<path d="M59.6846 23.5125L59.8646 13.1445" stroke="#BA5A31" stroke-width="1.5" stroke-linecap="round" stroke-linejoin="round"/>
</svg>
