<svg width="24" height="25" viewBox="0 0 24 25" fill="none" xmlns="http://www.w3.org/2000/svg">
<path d="M20.9727 7.47521C20.5083 8.09473 19.9469 8.63514 19.3102 9.07557C19.3102 9.2374 19.3102 9.39923 19.3102 9.57006C19.3153 12.5089 18.1414 15.3269 16.0517 17.3923C13.9619 19.4577 11.1311 20.5977 8.19393 20.5567C6.49587 20.5624 4.81955 20.1747 3.2963 19.4239C3.21416 19.388 3.16119 19.3068 3.1615 19.2171V19.1182C3.1615 18.9891 3.26611 18.8845 3.39515 18.8845C5.0643 18.8294 6.6739 18.2507 7.99622 17.2302C6.48541 17.1997 5.12607 16.3047 4.50048 14.9285C4.46889 14.8534 4.47872 14.7671 4.52645 14.701C4.57417 14.6349 4.65288 14.5985 4.73413 14.6049C5.1933 14.651 5.65706 14.6083 6.10008 14.479C4.43227 14.1328 3.17909 12.7482 2.99974 11.0535C2.99337 10.9722 3.0298 10.8935 3.09588 10.8457C3.16195 10.798 3.24812 10.7881 3.32326 10.8198C3.77082 11.0173 4.25397 11.1213 4.74312 11.1254C3.28172 10.1663 2.65049 8.34186 3.20643 6.68403C3.26382 6.52294 3.40169 6.40393 3.56938 6.37075C3.73706 6.33756 3.90984 6.39509 4.0242 6.5222C5.99627 8.62106 8.70592 9.87177 11.5818 10.0106C11.5082 9.71666 11.472 9.41457 11.474 9.11153C11.5009 7.52253 12.4841 6.10702 13.9633 5.52768C15.4424 4.94835 17.1248 5.31984 18.2229 6.46825C18.9713 6.32566 19.6949 6.07426 20.3706 5.72202C20.4201 5.69112 20.4829 5.69112 20.5324 5.72202C20.5633 5.77154 20.5633 5.83433 20.5324 5.88385C20.2051 6.63333 19.6522 7.26193 18.9508 7.682C19.565 7.61077 20.1684 7.46588 20.7481 7.25045C20.7969 7.21723 20.861 7.21723 20.9098 7.25045C20.9507 7.26915 20.9813 7.30492 20.9934 7.34823C21.0055 7.39154 20.9979 7.43799 20.9727 7.47521Z" fill="#403D39"/>
</svg>
