<svg width="74" height="74" viewBox="0 0 74 74" fill="none" xmlns="http://www.w3.org/2000/svg">
<path d="M28.2525 38.6562L17.2725 49.6363" stroke="#BA5A31" stroke-width="1.5" stroke-miterlimit="10" stroke-linecap="round" stroke-linejoin="round"/>
<path d="M17.3794 38.7646L28.3594 49.7446" stroke="#BA5A31" stroke-width="1.5" stroke-miterlimit="10" stroke-linecap="round" stroke-linejoin="round"/>
<path d="M42.5078 44.2002H42.5438" stroke="#BA5A31" stroke-width="2" stroke-miterlimit="10" stroke-linecap="round" stroke-linejoin="round"/>
<path d="M56.6924 44.2002H56.7284" stroke="#BA5A31" stroke-width="2" stroke-miterlimit="10" stroke-linecap="round" stroke-linejoin="round"/>
<path d="M49.6001 51.3279V51.2559" stroke="#BA5A31" stroke-width="2" stroke-miterlimit="10" stroke-linecap="round" stroke-linejoin="round"/>
<path d="M49.6001 37.1443V37.0723" stroke="#BA5A31" stroke-width="2" stroke-miterlimit="10" stroke-linecap="round" stroke-linejoin="round"/>
<path d="M26.2 73.0004H47.8C65.8 73.0004 73 65.8004 73 47.8004V40.6004C73 22.6004 65.8 15.4004 47.8 15.4004H26.2C8.2 15.4004 1 22.6004 1 40.6004V47.8004C1 65.8004 8.2 73.0004 26.2 73.0004Z" stroke="#BA5A31" stroke-width="1.5" stroke-linecap="round" stroke-linejoin="round"/>
<path d="M40.6352 1L40.5991 4.636C40.5631 6.616 38.9791 8.2 36.9991 8.2H36.8912C34.9112 8.2 33.3271 9.82 33.3271 11.8C33.3271 13.78 34.9471 15.4 36.9271 15.4H40.5271" stroke="#BA5A31" stroke-width="1.5" stroke-linecap="round" stroke-linejoin="round"/>
</svg>
