<svg width="98" height="98" viewBox="0 0 98 98" fill="none" xmlns="http://www.w3.org/2000/svg">
<path d="M41.8935 25.3425C41.4877 25.3425 41.1588 25.6714 41.1588 26.0772C41.1588 26.4829 41.4877 26.8119 41.8935 26.8119H55.9996C56.4054 26.8119 56.7343 26.4829 56.7343 26.0772C56.7343 25.6714 56.4054 25.3425 55.9996 25.3425H41.8935Z" fill="#BA5A31"/>
<path fill-rule="evenodd" clip-rule="evenodd" d="M38.3673 13C31.3195 13 26.6203 13.8632 23.7417 16.7417C20.8632 19.6203 20 24.3195 20 31.3673V66.6327C20 73.6805 20.8632 78.3797 23.7417 81.2583C26.6203 84.1368 31.3195 85 38.3673 85H59.5265C66.5743 85 71.2736 84.1368 74.1522 81.2583C77.0307 78.3797 77.8939 73.6805 77.8939 66.6327V31.3673C77.8939 24.3195 77.0307 19.6203 74.1522 16.7417C71.2736 13.8632 66.5743 13 59.5265 13H38.3673ZM21.4694 31.3673C21.4694 24.309 22.3695 20.192 24.7807 17.7807C27.192 15.3695 31.309 14.4694 38.3673 14.4694H59.5265C66.5848 14.4694 70.7019 15.3695 73.1131 17.7807C75.5244 20.192 76.4245 24.309 76.4245 31.3673V66.6327C76.4245 73.691 75.5244 77.808 73.1131 80.2193C70.7019 82.6305 66.5848 83.5306 59.5265 83.5306H38.3673C31.309 83.5306 27.192 82.6305 24.7807 80.2193C22.3695 77.808 21.4694 73.691 21.4694 66.6327V31.3673Z" fill="#BA5A31"/>
</svg>
